<svg fill="#000000" version="1.1" id="Layer_1" xmlns="http://www.w3.org/2000/svg" xmlns:xlink="http://www.w3.org/1999/xlink" viewBox="0 0 295.24 295.24" xml:space="preserve"><g id="SVGRepo_bgCarrier" stroke-width="0"></g><g id="SVGRepo_tracerCarrier" stroke-linecap="round" stroke-linejoin="round"></g><g id="SVGRepo_iconCarrier"> <g> <g> <g> <path d="M233.335,216.668v-9.524h47.617c7.876,0,14.286-6.41,14.286-14.286v-76.19c0-7.876-6.41-14.286-14.286-14.286H147.619 c-7.876,0-14.286,6.41-14.286,14.286v76.19c0,7.876,6.41,14.286,14.286,14.286h47.619v9.524H85.714v-15.729L83.5,197.62H100 v-17.838c0-5.824-4.152-10.79-9.876-11.805c-7.748-1.381-22.957-3.69-37.743-3.69c-14.786,0-29.995,2.31-37.743,3.69 c-5.724,1.014-9.876,5.981-9.876,11.805v17.838h16.5l-2.214,3.319v15.729H0v28.571h14.286v47.619h9.524v-47.619h9.524v47.619 h9.524v-47.619h209.524v47.619h9.524v-47.619h9.524v47.619h9.524v-47.619h14.286v-28.571H233.335z M142.857,116.668 c0-2.624,2.138-4.762,4.762-4.762h133.333c2.624,0,4.762,2.138,4.762,4.762v61.905H142.857V116.668z M195.238,197.62h-47.619 c-2.624,0-4.762-2.138-4.762-4.762v-4.762h142.857v4.762c0,2.624-2.138,4.762-4.762,4.762h-47.619H195.238z M223.81,207.144 v9.524h-19.048v-9.524H223.81z M19.062,188.096h-4.776v-8.314c0-1.2,0.848-2.219,2.019-2.429 c7.438-1.324,22.019-3.543,36.076-3.543s28.638,2.219,36.076,3.543c1.171,0.21,2.019,1.229,2.019,2.429v8.314H85.7 c-0.295-5.105-4.405-9.167-9.51-9.467v-0.057H75.6H29.162h-0.59v0.057C23.472,178.929,19.358,182.991,19.062,188.096z M76.19,203.825v12.843H28.571v-12.843l9.524-14.286v-1.443h28.571v1.443L76.19,203.825z M285.714,235.715h-4.762h-28.571H42.857 H14.286H9.524v-9.524h9.524h66.667h109.524h38.095h52.38V235.715z"></path> <rect x="4.762" y="83.334" width="285.714" height="9.524"></rect> <path d="M42.857,2.382H4.762v76.19h38.095V2.382z M14.286,11.906h19.047v28.571H14.286V11.906z M33.334,69.049H14.286V50.001 h19.048V69.049z"></path> <circle cx="23.81" cy="59.525" r="4.762"></circle> <path d="M85.714,2.382H47.619v76.19h38.095V2.382z M76.19,69.049H57.143V50.001H76.19V69.049z M76.19,40.477H57.143V11.906H76.19 V40.477z"></path> <circle cx="66.667" cy="59.525" r="4.762"></circle> <path d="M128.571,2.382H90.476v76.19h38.095V2.382z M100,11.906h19.048v28.571H100V11.906z M119.048,69.049H100V50.001h19.048 V69.049z"></path> <circle cx="109.524" cy="59.525" r="4.762"></circle> </g> </g> </g> </g></svg>