<?xml version="1.0" encoding="iso-8859-1"?>
<!-- Uploaded to: SVG Repo, www.svgrepo.com, Generator: SVG Repo Mixer Tools -->
<svg version="1.1" id="Layer_1" xmlns="http://www.w3.org/2000/svg" xmlns:xlink="http://www.w3.org/1999/xlink" 
	 viewBox="0 0 512 512" xml:space="preserve">
<path style="fill:#DBDBDB;" d="M414.992,512H97.008c-12.792-0.056-23.144-10.408-23.2-23.2V23.2
	C73.864,10.408,84.216,0.056,97.008,0h317.984c12.792,0.056,23.144,10.408,23.2,23.2v465.6
	C438.136,501.592,427.784,511.944,414.992,512z"/>
<path style="fill:#C1C1C1;" d="M256,497.416c-8.96,0-16.224-7.264-16.224-16.224s7.264-16.224,16.224-16.224
	s16.224,7.264,16.224,16.224l0,0C272.216,490.152,264.96,497.408,256,497.416z M256,470.76c-5.744,0-10.4,4.656-10.4,10.4
	s4.656,10.4,10.4,10.4s10.4-4.656,10.4-10.4l0,0C266.4,475.416,261.744,470.76,256,470.76z"/>
<rect x="94.104" y="31.936" width="323.8" height="419.04"/>
<circle style="fill:#C1C1C1;" cx="256" cy="16" r="4.44"/>
<path style="fill:#FFFFFF;" d="M164.48,111.512h-21.464c-6.408-0.016-11.6-5.208-11.616-11.616V78.4
	c0.016-6.408,5.208-11.6,11.616-11.616h21.464c6.408,0.024,11.592,5.208,11.608,11.616v21.464
	C176.088,106.28,170.896,111.488,164.48,111.512z"/>
<path style="fill:#E21B1B;" d="M232.648,111.512H211.2c-6.408-0.016-11.6-5.208-11.616-11.616V78.4
	c0.04-6.392,5.224-11.56,11.616-11.576h21.464c6.384,0.032,11.552,5.192,11.592,11.576v21.464
	C244.256,106.28,239.064,111.488,232.648,111.512z"/>
<path style="fill:#FFFFFF;" d="M300.8,111.512h-21.448c-6.408-0.016-11.6-5.208-11.616-11.616V78.4
	c0.016-6.408,5.208-11.6,11.616-11.616H300.8c6.416,0.008,11.616,5.2,11.632,11.616v21.464
	C312.432,106.288,307.224,111.504,300.8,111.512z"/>
<g>
	<path style="fill:#E21B1B;" d="M368.984,111.512H347.52c-6.408-0.016-11.6-5.208-11.616-11.616V78.4
		c0.04-6.392,5.224-11.56,11.616-11.576h21.464c6.392,0.016,11.576,5.184,11.616,11.576v21.464
		C380.6,106.288,375.408,111.496,368.984,111.512z"/>
	<path style="fill:#E21B1B;" d="M164.48,187.656h-21.464c-6.408-0.016-11.6-5.208-11.616-11.616v-21.456
		c0.016-6.408,5.208-11.6,11.616-11.616h21.464c6.408,0.016,11.6,5.208,11.616,11.616v21.464
		C176.072,182.456,170.888,187.64,164.48,187.656z"/>
</g>
<path style="fill:#6B6B6B;" d="M232.648,187.656H211.2c-6.408-0.016-11.6-5.208-11.616-11.616v-21.456
	c0.016-6.408,5.208-11.6,11.616-11.616h21.464c6.408,0.016,11.6,5.208,11.616,11.616v21.464
	C244.256,182.456,239.056,187.648,232.648,187.656z"/>
<path style="fill:#FFFFFF;" d="M300.8,187.656h-21.448c-6.408-0.016-11.6-5.208-11.616-11.616v-21.456
	c0.016-6.408,5.208-11.6,11.616-11.616H300.8c6.408,0.016,11.6,5.208,11.616,11.616v21.464
	C312.392,182.456,307.208,187.64,300.8,187.656z"/>
<g>
	<path style="fill:#6B6B6B;" d="M368.984,187.656H347.52c-6.408-0.016-11.6-5.208-11.616-11.616v-21.456
		c0.016-6.408,5.208-11.6,11.616-11.616h21.464c6.408,0.016,11.6,5.208,11.616,11.616v21.464
		C380.576,182.456,375.392,187.64,368.984,187.656z"/>
	<path style="fill:#6B6B6B;" d="M164.48,263.792h-21.464c-6.408-0.016-11.6-5.208-11.616-11.616V230.72
		c0.016-6.408,5.208-11.6,11.616-11.616h21.464c6.408,0.016,11.6,5.208,11.616,11.616v21.464
		C176.072,258.592,170.888,263.776,164.48,263.792z"/>
</g>
<path style="fill:#FFFFFF;" d="M232.648,263.792H211.2c-6.408-0.016-11.6-5.208-11.616-11.616V230.72
	c0.016-6.408,5.208-11.6,11.616-11.616h21.464c6.408,0.016,11.6,5.208,11.616,11.616v21.464
	C244.256,258.592,239.056,263.784,232.648,263.792z"/>
<path style="fill:#6B6B6B;" d="M300.8,263.792h-21.448c-6.408-0.016-11.6-5.208-11.616-11.616V230.72
	c0.016-6.408,5.208-11.6,11.616-11.616H300.8c6.408,0.016,11.6,5.208,11.616,11.616v21.464
	C312.392,258.592,307.208,263.776,300.8,263.792z"/>
<g>
	<path style="fill:#E21B1B;" d="M368.984,263.792H347.52c-6.408-0.016-11.6-5.208-11.616-11.616V230.72
		c0.016-6.408,5.208-11.6,11.616-11.616h21.464c6.408,0.016,11.6,5.208,11.616,11.616v21.464
		C380.576,258.592,375.392,263.776,368.984,263.792z"/>
	<path style="fill:#E21B1B;" d="M164.48,339.936h-21.464c-6.408-0.016-11.6-5.208-11.616-11.616v-21.456
		c0.016-6.408,5.208-11.6,11.616-11.616h21.464c6.408,0.016,11.6,5.208,11.616,11.616v21.464
		C176.072,334.736,170.888,339.92,164.48,339.936z"/>
</g>
<path style="fill:#6B6B6B;" d="M232.648,339.936H211.2c-6.408-0.016-11.6-5.208-11.616-11.616v-21.456
	c0.024-6.408,5.208-11.592,11.616-11.608h21.464c6.408,0.016,11.6,5.208,11.616,11.616v21.464
	C244.256,334.744,239.056,339.928,232.648,339.936z"/>
<path style="fill:#E21B1B;" d="M300.8,339.936h-21.448c-6.408-0.016-11.6-5.208-11.616-11.616v-21.456
	c0.016-6.408,5.208-11.6,11.616-11.616H300.8c6.408,0.016,11.6,5.208,11.616,11.616v21.464
	C312.392,334.736,307.208,339.92,300.8,339.936z"/>
<g>
	<path style="fill:#FFFFFF;" d="M368.984,339.936H347.52c-6.408-0.016-11.6-5.208-11.616-11.616v-21.456
		c0.016-6.408,5.208-11.6,11.616-11.616h21.464c6.408,0.016,11.6,5.208,11.616,11.616v21.464
		C380.576,334.736,375.392,339.92,368.984,339.936z"/>
	<path style="fill:#FFFFFF;" d="M164.48,416.088h-21.464c-6.408-0.016-11.6-5.208-11.616-11.616v-21.456
		c0.016-6.408,5.208-11.6,11.616-11.616h21.464c6.408,0.016,11.6,5.208,11.616,11.616v21.464
		C176.072,410.888,170.888,416.072,164.48,416.088z"/>
</g>
<path style="fill:#E21B1B;" d="M232.648,416.088H211.2c-6.408-0.016-11.6-5.208-11.616-11.616v-21.456
	c0.016-6.408,5.208-11.6,11.616-11.616h21.464c6.408,0.016,11.6,5.208,11.616,11.616v21.464
	C244.256,410.888,239.056,416.08,232.648,416.088z"/>
<path style="fill:#6B6B6B;" d="M300.8,416.088h-21.448c-6.408-0.016-11.6-5.208-11.616-11.616v-21.456
	c0.016-6.408,5.208-11.6,11.616-11.616H300.8c6.408,0.016,11.6,5.208,11.616,11.616v21.464
	C312.392,410.888,307.208,416.072,300.8,416.088z"/>
<path style="fill:#FFFFFF;" d="M368.984,416.088H347.52c-6.408-0.016-11.6-5.208-11.616-11.616v-21.456
	c0.016-6.408,5.208-11.6,11.616-11.616h21.464c6.408,0.016,11.6,5.208,11.616,11.616v21.464
	C380.576,410.888,375.392,416.072,368.984,416.088z"/>
</svg>