<svg version="1.1" id="Layer_1" xmlns="http://www.w3.org/2000/svg" xmlns:xlink="http://www.w3.org/1999/xlink" x="0px" y="0px"
	 width="100%" viewBox="0 0 3000 1057" enable-background="new 0 0 3000 1057" xml:space="preserve">
<path fill="transparent" opacity="1.000000" stroke="none" 
	d="
M2098.000000,1058.000000 
	C1398.666626,1058.000000 699.833313,1058.000000 1.000000,1058.000000 
	C1.000000,705.666687 1.000000,353.333344 1.000000,1.000000 
	C1001.000000,1.000000 2001.000000,1.000000 3001.000000,1.000000 
	C3001.000000,353.333344 3001.000000,705.666687 3001.000000,1058.000000 
	C2700.166748,1058.000000 2399.333252,1058.000000 2098.000000,1058.000000 
M1820.976685,701.068970 
	C1820.985107,674.196594 1821.009033,647.324158 1820.961426,620.451843 
	C1820.958618,618.930298 1820.368530,617.409729 1819.565308,615.169006 
	C1812.136353,615.169006 1804.707397,615.169006 1797.289307,615.169006 
	C1797.153198,616.084106 1797.020020,616.561951 1797.019775,617.039795 
	C1797.006348,644.537842 1796.811768,672.038269 1797.139526,699.532349 
	C1797.218262,706.129700 1798.476685,712.856628 1800.193848,719.255310 
	C1802.443726,727.638489 1806.633301,735.026733 1812.672363,741.641418 
	C1817.784058,747.240295 1823.245361,751.779175 1830.010620,755.115234 
	C1837.239868,758.680176 1844.877930,759.309875 1852.701538,760.265259 
	C1861.641846,761.356873 1870.168335,760.414856 1877.760010,756.385193 
	C1885.624634,752.210632 1892.566284,746.297180 1900.084473,741.023010 
	C1900.084473,746.314270 1900.084473,752.022705 1900.084473,757.653564 
	C1908.341675,757.653564 1916.069458,757.653564 1924.000000,757.653564 
	C1924.000000,736.657104 1924.000000,716.006409 1924.000000,695.355713 
	C1924.000000,670.190796 1923.940552,645.025574 1924.066162,619.861267 
	C1924.084351,616.215027 1923.059448,614.725342 1919.255859,614.935669 
	C1914.437622,615.202209 1909.582397,615.199829 1904.763916,614.936157 
	C1900.984619,614.729309 1899.900757,616.169861 1899.931885,619.841248 
	C1900.082886,637.672058 1899.997559,655.504883 1900.006470,673.336975 
	C1900.006958,674.329651 1899.981323,675.345825 1900.170044,676.311523 
	C1902.427246,687.866272 1901.762573,699.690063 1898.434204,710.528625 
	C1891.232910,733.978455 1869.739868,743.341309 1847.264160,737.507568 
	C1831.894409,733.518311 1821.839111,719.959656 1820.976685,701.068970 
M1631.214478,616.380554 
	C1631.144165,617.039124 1631.012451,617.697754 1631.012329,618.356323 
	C1631.001953,682.382568 1630.996216,746.408813 1631.042603,810.435059 
	C1631.043335,811.567810 1631.674805,812.700195 1632.937866,813.976685 
	C1640.202393,813.976685 1647.466797,813.976685 1655.273193,813.976685 
	C1655.273193,788.739197 1655.273193,764.097046 1655.273193,738.345276 
	C1657.788086,741.040894 1659.526489,742.838074 1661.191650,744.700745 
	C1668.210205,752.551819 1677.072510,757.349548 1687.321655,758.854370 
	C1694.808960,759.953735 1702.568237,760.445557 1710.080811,759.783264 
	C1717.735229,759.108459 1725.684082,757.759094 1732.710327,754.812622 
	C1747.030029,748.807556 1757.745361,738.037720 1764.768677,724.319824 
	C1773.490967,707.283813 1775.702759,689.016602 1771.924194,670.170715 
	C1768.490112,653.042114 1760.424316,638.510315 1746.817871,627.404053 
	C1738.017700,620.220825 1727.892578,615.339966 1716.552612,614.154724 
	C1708.947266,613.359680 1701.188354,613.851501 1693.504639,614.037476 
	C1683.473633,614.280334 1674.539673,617.857727 1666.647583,623.920288 
	C1662.784302,626.888000 1659.238525,630.268982 1654.968994,633.965027 
	C1654.968994,627.390564 1654.968994,621.355591 1654.968994,614.573608 
	C1646.921997,615.035400 1639.433105,615.465210 1631.214478,616.380554 
M930.000000,881.500000 
	C930.000000,617.430969 930.000000,353.361908 930.000000,89.343185 
	C656.322632,89.343185 383.283844,89.343185 110.382462,89.343185 
	C110.382462,205.069244 110.382462,320.451752 110.382462,435.745789 
	C130.703674,435.745789 150.641449,435.745789 171.083618,435.745789 
	C171.083618,338.775085 171.083618,242.057129 171.083618,145.323090 
	C405.298676,145.323090 639.006653,145.323090 872.649536,145.323090 
	C872.649536,384.354004 872.649536,623.061646 872.649536,862.273193 
	C747.250610,862.273193 622.201416,862.273193 497.260681,862.273193 
	C497.260681,880.716675 497.260681,898.654907 497.260681,916.702759 
	C641.568604,916.702759 785.615662,916.702759 930.000000,916.702759 
	C930.000000,905.105896 930.000000,893.802979 930.000000,881.500000 
M423.999786,389.500000 
	C423.999786,368.413361 423.999786,347.326721 423.999786,326.370728 
	C409.276917,326.370728 395.218506,326.370728 381.381378,326.370728 
	C381.381378,447.112762 381.381378,567.484070 381.381378,687.755981 
	C395.703705,687.755981 409.643402,687.755981 423.999023,687.755981 
	C423.999023,685.735962 423.999054,683.939514 423.999054,682.143127 
	C423.999176,646.318787 424.059509,610.494202 423.911407,574.670471 
	C423.895630,570.852417 424.949554,568.158447 427.771393,565.650574 
	C435.918243,558.410156 443.961700,551.048218 451.895630,543.574585 
	C465.647095,530.620972 479.285126,517.546936 492.972382,504.525116 
	C494.268158,503.292328 495.575409,502.071594 497.066498,500.667053 
	C498.168030,501.828339 499.163910,502.689575 499.934143,503.719574 
	C507.447693,513.766785 514.863953,523.887146 522.423035,533.899719 
	C536.179199,552.120911 550.089417,570.226074 563.790771,588.488098 
	C573.955688,602.036499 583.787842,615.834595 593.954834,629.381348 
	C607.858765,647.907166 621.885498,666.342102 636.038391,684.677979 
	C637.294373,686.305176 639.842285,687.799500 641.831055,687.853638 
	C652.986694,688.157288 664.154785,688.000000 675.318665,688.000000 
	C680.364014,688.000000 685.409424,688.000000 691.297974,688.000000 
	C636.692078,615.445984 582.712830,543.724548 528.450500,471.627045 
	C532.917847,467.654114 537.193115,464.032043 541.268066,460.197113 
	C559.429626,443.105225 577.525574,425.943573 595.661987,408.824860 
	C607.099243,398.029419 618.612305,387.313843 630.009094,376.475861 
	C647.350891,359.984344 664.621277,343.417786 682.529114,326.302795 
	C680.261230,326.175110 678.709045,326.013641 677.156738,326.011780 
	C661.494019,325.992920 645.823242,326.285065 630.172791,325.846863 
	C624.634399,325.691803 620.840698,327.868561 617.173157,331.312408 
	C606.799866,341.052887 596.387268,350.751526 586.007874,360.485535 
	C564.394043,380.755371 542.792786,401.038422 521.184326,421.313843 
	C510.440002,431.395294 499.659668,441.438599 488.952271,451.559113 
	C475.585358,464.193451 462.274200,476.886749 448.944153,489.560089 
	C441.977905,496.183136 435.044464,502.840973 428.038300,509.421509 
	C427.038788,510.360291 425.711426,510.950012 424.428528,511.769806 
	C424.197906,511.043091 424.027344,510.756439 424.027222,510.469757 
	C424.009949,470.479828 424.005127,430.489929 423.999786,389.500000 
M1402.431763,758.000122 
	C1404.863892,758.000122 1407.296021,758.000122 1409.997437,758.000122 
	C1409.997437,755.566589 1409.997437,753.756836 1409.997437,751.947144 
	C1409.997314,725.616089 1409.821411,699.283203 1410.101807,672.955139 
	C1410.188232,664.841858 1411.526978,656.841187 1416.555176,649.836304 
	C1422.795898,641.142578 1431.225708,636.721069 1441.579956,634.902649 
	C1452.169556,633.042847 1461.292969,636.015686 1469.114136,642.752075 
	C1477.858276,650.283386 1480.693115,660.867188 1480.863159,671.773560 
	C1481.281250,698.598022 1481.000000,725.433411 1481.000000,752.264404 
	C1481.000000,754.045410 1481.000000,755.826416 1481.000000,757.704590 
	C1488.900269,757.704590 1496.292725,757.704590 1503.997437,757.704590 
	C1503.997437,755.611938 1503.997437,753.804321 1503.997437,751.996704 
	C1503.997314,725.665649 1503.811890,699.332214 1504.146606,673.005432 
	C1504.217529,667.430359 1505.262085,661.475891 1507.471680,656.398315 
	C1512.603149,644.605652 1521.792236,637.374634 1534.743042,634.935669 
	C1546.087280,632.799133 1555.758179,635.961365 1563.929077,643.558777 
	C1571.609985,650.700439 1574.732788,660.314331 1574.871582,670.418762 
	C1575.246582,697.744568 1575.000000,725.078918 1575.000000,752.409851 
	C1575.000000,754.176941 1575.000000,755.943970 1575.000000,757.653442 
	C1583.006958,757.653442 1590.401245,757.653442 1597.723999,757.653442 
	C1597.850342,756.988770 1597.963867,756.669800 1597.964111,756.350708 
	C1597.981567,726.520203 1598.072021,696.689453 1597.965088,666.859375 
	C1597.912964,652.342773 1592.226318,639.777283 1582.599365,629.313049 
	C1574.469238,620.475769 1564.245483,615.422607 1551.897949,613.704102 
	C1537.070068,611.640381 1524.116943,615.273010 1512.229736,623.437622 
	C1505.997070,627.718567 1500.481323,633.043335 1495.248901,637.392090 
	C1487.010742,624.379211 1474.079956,614.273621 1455.917969,613.145935 
	C1437.568115,612.006470 1421.406128,617.086731 1409.808838,634.456543 
	C1409.808838,627.173096 1409.808838,621.146545 1409.808838,615.239807 
	C1401.971313,615.239807 1394.695923,615.239807 1387.277588,615.239807 
	C1387.277588,662.869873 1387.277588,710.259644 1387.277588,758.000122 
	C1392.182861,758.000122 1396.817749,758.000122 1402.431763,758.000122 
M1160.707031,281.836945 
	C1147.790894,294.075378 1134.942505,306.386414 1121.936768,318.528717 
	C1111.993652,327.811646 1101.812378,336.839081 1091.808105,346.057190 
	C1081.967773,355.124329 1072.216919,364.288574 1062.000000,373.807800 
	C1062.000000,366.243042 1062.000000,359.412994 1062.000000,352.582977 
	C1062.000000,329.752838 1062.053101,306.922302 1061.891724,284.093292 
	C1061.879761,282.399963 1060.409180,279.308228 1059.478149,279.254272 
	C1052.408936,278.844360 1045.305176,279.029968 1038.372314,279.029968 
	C1038.372314,342.398224 1038.372314,405.118225 1038.372314,467.763000 
	C1046.355347,467.763000 1053.963745,467.763000 1062.000000,467.763000 
	C1062.000000,465.921265 1062.026733,464.291595 1061.995972,462.663055 
	C1061.666504,445.236450 1061.303711,427.810425 1061.033691,410.382996 
	C1061.009521,408.820831 1061.016968,406.678864 1061.949219,405.773071 
	C1069.222900,398.706238 1076.713257,391.861786 1084.164185,384.978302 
	C1088.983398,380.526093 1093.848755,376.123871 1098.713379,371.681030 
	C1102.499878,376.607971 1106.566406,381.769623 1110.492676,387.035919 
	C1118.032715,397.149506 1125.423828,407.374725 1133.002808,417.458771 
	C1144.950439,433.355316 1156.983276,449.187866 1169.046997,464.996521 
	C1169.964722,466.199188 1171.388794,467.817841 1172.616821,467.852600 
	C1181.345093,468.099518 1190.083618,467.984131 1198.818848,467.984131 
	C1199.124756,467.538635 1199.430786,467.093140 1199.736694,466.647675 
	C1171.888306,429.586517 1144.040039,392.525360 1116.075684,355.309784 
	C1142.564087,330.263885 1168.994751,305.272736 1195.425293,280.281555 
	C1195.191650,279.856689 1194.958008,279.431793 1194.724365,279.006927 
	C1184.472900,279.006927 1174.220459,278.949463 1163.971313,279.103821 
	C1163.039185,279.117828 1162.127563,280.491760 1160.707031,281.836945 
M2094.500000,695.999512 
	C2123.921631,695.999512 2153.343506,695.999512 2183.482422,695.999512 
	C2182.957520,687.072815 2182.876953,678.801086 2181.892578,670.638306 
	C2180.533203,659.368164 2176.229004,648.825378 2169.296631,640.058960 
	C2155.583008,622.717529 2137.397949,613.211670 2114.951660,613.041260 
	C2101.456543,612.938782 2088.463867,615.013367 2076.391357,621.826965 
	C2065.370605,628.047058 2056.879883,636.511414 2050.877930,647.532349 
	C2046.737671,655.134460 2044.310181,663.186523 2042.686279,671.817017 
	C2040.443481,683.736572 2041.240967,695.104919 2043.828369,706.742004 
	C2046.168457,717.266602 2050.904541,726.362183 2057.299072,734.928467 
	C2066.051514,746.653564 2077.902344,753.801636 2091.466309,757.792236 
	C2102.795410,761.125488 2114.710938,761.877319 2126.482178,759.893921 
	C2132.492188,758.881409 2138.657715,757.559570 2144.168213,755.078308 
	C2155.022949,750.190796 2164.092529,742.772461 2170.772461,732.718506 
	C2174.334717,727.356628 2178.002197,722.039246 2179.258301,715.002625 
	C2171.217285,715.002625 2163.733887,714.883057 2156.262207,715.123352 
	C2155.052734,715.162292 2153.680420,716.619751 2152.751953,717.729614 
	C2149.659180,721.425476 2147.140869,725.697815 2143.654785,728.947327 
	C2137.587402,734.603516 2130.228271,737.170654 2121.770996,738.300476 
	C2105.461426,740.479126 2091.144287,737.083557 2079.340820,725.663086 
	C2071.162354,717.749817 2066.802490,707.597351 2065.599609,695.999512 
	C2074.849609,695.999512 2084.174805,695.999512 2094.500000,695.999512 
M1195.069702,718.584534 
	C1197.396973,713.681519 1199.631226,708.731323 1202.085938,703.892944 
	C1203.617188,700.874695 1202.411987,700.000549 1199.563721,700.001587 
	C1194.065674,700.003601 1188.558716,700.186218 1183.072876,699.927612 
	C1179.974609,699.781738 1178.439331,700.945557 1176.965454,703.608948 
	C1173.986450,708.992432 1171.262085,714.843262 1167.055908,719.159485 
	C1154.729492,731.808411 1139.310059,738.075012 1121.592896,737.903992 
	C1115.740234,737.847534 1109.874756,736.829712 1104.056641,735.970215 
	C1089.803955,733.864563 1077.263916,727.594666 1067.846191,717.005432 
	C1054.928589,702.481079 1049.392334,684.473877 1049.171143,665.260620 
	C1049.001343,650.519714 1052.047485,636.158508 1059.447021,623.079773 
	C1067.057373,609.628845 1077.936646,599.928711 1092.619019,594.783569 
	C1104.667236,590.561462 1116.994263,589.492126 1129.735840,590.906738 
	C1147.230103,592.849060 1161.256592,600.360229 1171.376709,614.852539 
	C1174.383179,619.157898 1176.295898,625.500732 1180.367065,627.451599 
	C1184.978516,629.661438 1191.452637,627.984497 1197.116821,627.996887 
	C1197.616699,627.997986 1198.151855,628.111816 1198.609863,627.972900 
	C1200.177490,627.497498 1201.717896,626.932678 1203.587769,626.292786 
	C1202.193237,623.512573 1201.011597,621.551392 1200.187500,619.449951 
	C1194.661987,605.360901 1185.566528,593.887024 1173.466919,585.115295 
	C1153.978271,570.986816 1132.163696,565.214111 1107.993896,567.876404 
	C1094.412354,569.372498 1081.629883,572.476379 1069.795044,579.559143 
	C1056.697998,587.397278 1046.727417,598.148621 1039.019409,611.098328 
	C1029.021240,627.895386 1026.105347,646.470459 1026.049561,665.653503 
	C1026.038574,669.413269 1026.508667,673.197144 1027.036255,676.930420 
	C1027.876221,682.874695 1028.618774,688.864258 1029.995483,694.694641 
	C1032.870483,706.869812 1038.126831,718.181885 1046.398560,727.458496 
	C1053.358887,735.264404 1060.857788,743.383545 1069.766479,748.486511 
	C1086.177612,757.886841 1104.225098,762.015442 1123.691650,760.256958 
	C1137.726074,758.989197 1150.843628,756.150452 1163.257202,749.411072 
	C1176.578613,742.178772 1186.885620,731.992004 1195.069702,718.584534 
M1353.970947,325.469330 
	C1352.772583,324.985260 1351.592896,324.138763 1350.372681,324.075287 
	C1341.776611,323.628082 1333.153687,322.822784 1324.574951,323.129852 
	C1312.621216,323.557770 1301.329590,327.530426 1292.025269,334.773071 
	C1274.249878,348.609497 1264.482178,367.298615 1263.075073,389.886871 
	C1262.043945,406.438141 1264.893921,422.363312 1273.439697,436.847443 
	C1279.772705,447.581421 1288.013550,456.411499 1299.364258,462.175781 
	C1306.673950,465.887939 1314.078613,468.414734 1322.353027,469.339661 
	C1331.963135,470.413910 1341.340454,470.179779 1350.663818,468.038177 
	C1363.160278,465.167694 1373.170776,458.073334 1382.178345,447.916321 
	C1382.178345,455.121826 1382.178345,461.383209 1382.178345,467.698975 
	C1389.923340,467.698975 1397.312622,467.698975 1404.697021,467.698975 
	C1404.697021,419.697784 1404.697021,371.998444 1404.697021,324.003204 
	C1398.095215,324.003204 1391.791138,324.077698 1385.489990,323.971222 
	C1382.427612,323.919434 1381.948242,325.606262 1381.985596,328.114990 
	C1382.066284,333.539215 1382.010498,338.965485 1382.010498,345.987885 
	C1377.287354,341.075287 1374.013916,336.580048 1369.722534,333.505798 
	C1365.206543,330.270660 1359.717041,328.394470 1353.970947,325.469330 
M1687.885010,324.801575 
	C1681.818604,324.534393 1675.742188,324.400818 1669.689209,323.951782 
	C1665.821167,323.664856 1664.776611,325.319122 1664.939941,328.914795 
	C1665.175415,334.099701 1665.000000,339.303284 1665.000000,345.419128 
	C1652.297485,328.933197 1637.367920,323.078796 1619.102783,322.217529 
	C1607.079346,321.650604 1595.401001,324.403900 1584.206177,329.763672 
	C1573.542603,334.869171 1565.576660,342.587921 1559.141724,351.940369 
	C1553.043701,360.803162 1549.370605,370.690002 1547.462036,381.565277 
	C1545.276245,394.019470 1546.326294,405.927979 1548.915894,418.020569 
	C1551.111206,428.272095 1555.876221,437.340698 1562.256470,445.335541 
	C1569.243896,454.091278 1577.956543,460.950867 1588.577393,465.308197 
	C1599.362305,469.732819 1610.567139,470.521301 1621.896362,469.902069 
	C1632.391602,469.328400 1642.531006,466.810028 1651.128052,460.333038 
	C1655.881714,456.751617 1660.205566,452.599396 1665.220459,448.275848 
	C1665.220459,455.072723 1665.220459,461.460754 1665.220459,467.776184 
	C1672.999268,467.776184 1680.272705,467.776184 1687.984863,467.776184 
	C1687.984863,420.288483 1687.984863,373.023315 1687.885010,324.801575 
M1347.543579,641.031372 
	C1340.966309,632.471497 1333.275024,625.043640 1323.544800,620.298584 
	C1306.403931,611.939575 1288.394409,611.471191 1270.024658,615.443176 
	C1254.458618,618.808960 1242.612671,628.108948 1233.239746,640.164612 
	C1228.411011,646.375610 1225.479858,654.311462 1222.751709,661.851562 
	C1217.895386,675.273621 1218.009033,689.503052 1220.386108,703.176147 
	C1224.097656,724.524841 1235.462769,741.334595 1254.738892,752.274719 
	C1265.982300,758.656006 1278.348022,760.455261 1290.859619,760.790344 
	C1297.096313,760.957336 1303.427246,759.194031 1309.650391,757.971802 
	C1326.593506,754.644470 1339.161987,744.789673 1348.575806,730.771118 
	C1355.166748,720.956238 1359.994141,710.324951 1360.027954,698.150330 
	C1360.055176,688.303833 1360.946899,678.303040 1359.530640,668.653076 
	C1358.104736,658.936279 1353.857056,649.762756 1347.543579,641.031372 
M2408.586670,644.085510 
	C2405.490723,638.989807 2403.081299,633.278320 2399.167725,628.916199 
	C2388.265137,616.764160 2373.381592,613.419800 2357.950439,613.206909 
	C2348.538818,613.077026 2338.988525,614.385803 2329.696533,616.107056 
	C2314.224609,618.972839 2303.156494,627.955505 2299.416016,643.490662 
	C2295.005371,661.809448 2298.985107,672.182861 2312.872070,682.058472 
	C2322.427246,688.853516 2333.944580,691.651917 2345.431641,694.059509 
	C2357.771240,696.645874 2370.219727,698.759644 2381.654053,704.788391 
	C2388.263916,708.273682 2392.064453,712.912354 2391.946289,720.310913 
	C2391.837891,727.107361 2386.492676,733.404785 2379.597900,736.020752 
	C2366.465576,741.003540 2353.045410,741.926697 2339.690430,737.834229 
	C2332.318604,735.575195 2325.135498,732.027771 2322.029297,723.956238 
	C2320.547119,720.105286 2319.418213,716.118469 2318.196777,712.397949 
	C2310.173584,712.397949 2302.139648,712.397949 2294.064453,712.397949 
	C2294.417725,714.717773 2294.709473,716.639465 2295.002930,718.560913 
	C2296.313232,727.147644 2299.855957,734.711487 2305.666504,741.141846 
	C2319.316162,756.247742 2337.384033,760.466003 2356.608643,760.815430 
	C2363.855469,760.947144 2371.206543,759.355286 2378.394531,757.956116 
	C2397.085449,754.318176 2411.074219,745.104614 2414.505371,724.895142 
	C2416.000244,716.090454 2415.794189,707.069336 2410.673096,699.281494 
	C2402.177490,686.361938 2388.508301,681.704773 2374.494141,678.055725 
	C2363.216553,675.119202 2351.672363,673.136230 2340.524658,669.800293 
	C2334.768311,668.077698 2328.013672,665.597900 2324.552979,661.215271 
	C2318.720215,653.828369 2320.598145,639.918274 2333.996826,635.897522 
	C2343.794678,632.957397 2353.710693,633.427246 2363.505127,634.233215 
	C2370.343994,634.795959 2377.605957,636.697388 2382.057373,642.774902 
	C2384.624756,646.279968 2385.990967,650.664673 2387.906006,654.670166 
	C2395.367432,654.670166 2403.089355,654.670166 2410.862793,654.670166 
	C2410.180664,651.169617 2409.562500,647.999084 2408.586670,644.085510 
M1970.319092,636.000427 
	C1974.264526,635.218567 1974.033691,637.775024 1974.031128,640.433350 
	C1973.994995,677.764526 1974.006714,715.095642 1974.006714,752.426819 
	C1974.006714,754.192139 1974.006714,755.957458 1974.006714,757.645508 
	C1982.026978,757.645508 1989.421265,757.645508 1997.296387,757.645508 
	C1997.296387,716.899719 1997.296387,676.506958 1997.296387,635.800354 
	C2008.065918,635.800354 2018.342773,635.800354 2028.697510,635.800354 
	C2028.697510,628.750671 2028.697510,622.024048 2028.697510,614.807983 
	C2018.002686,614.807983 2007.600830,614.807983 1997.000000,614.807983 
	C1997.000000,599.329468 1996.858643,584.343323 1997.089478,569.363037 
	C1997.155273,565.096008 1995.400391,563.872803 1991.596558,563.973572 
	C1987.266479,564.088257 1982.922485,564.168152 1978.600708,563.946838 
	C1975.149536,563.770081 1973.883423,564.960327 1973.941895,568.508484 
	C1974.120605,579.338196 1974.006836,590.172791 1974.006714,601.005493 
	C1974.006714,605.597656 1974.006714,610.189880 1974.006714,615.261597 
	C1963.599731,615.261597 1953.866089,615.261597 1944.242676,615.261597 
	C1944.242676,622.367188 1944.242676,628.976807 1944.242676,636.000183 
	C1952.770020,636.000183 1961.061768,636.000183 1970.319092,636.000427 
M1520.988770,365.500000 
	C1520.988770,333.431976 1520.988770,301.363922 1520.988770,269.330627 
	C1512.684692,269.330627 1504.961426,269.330627 1497.299072,269.330627 
	C1497.299072,335.670959 1497.299072,401.682465 1497.299072,468.000488 
	C1503.562012,468.000488 1509.546265,467.726593 1515.491577,468.089874 
	C1519.992798,468.364868 1521.098877,466.716125 1521.076904,462.401123 
	C1520.914185,430.434753 1520.988770,398.467194 1520.988770,365.500000 
M1462.985352,400.500000 
	C1462.985352,356.746216 1462.985352,312.992432 1462.985352,269.392273 
	C1454.560913,269.392273 1446.833374,269.392273 1439.253906,269.392273 
	C1439.253906,335.723114 1439.253906,401.663574 1439.253906,468.000641 
	C1445.629395,468.000641 1451.768066,467.792969 1457.884155,468.075409 
	C1461.806885,468.256561 1463.103882,467.027313 1463.068481,462.997559 
	C1462.887817,442.499725 1462.985229,421.999420 1462.985352,400.500000 
M2217.515137,758.000061 
	C2221.606201,758.000061 2225.697266,758.000061 2229.998291,758.000061 
	C2229.998291,736.510315 2229.759277,715.696960 2230.137695,694.894897 
	C2230.257812,688.286133 2231.296875,681.491943 2233.177734,675.157471 
	C2237.754150,659.746887 2246.063721,646.770996 2261.552002,640.350464 
	C2268.173584,637.605530 2275.516113,636.600342 2282.667725,634.769775 
	C2282.667725,627.991089 2282.667725,620.589050 2282.667725,613.046326 
	C2258.774902,612.402710 2242.206055,623.775635 2229.871582,644.323364 
	C2229.871582,633.901978 2229.871582,624.655579 2229.871582,615.283203 
	C2222.117676,615.283203 2214.727051,615.283203 2207.305908,615.283203 
	C2207.305908,662.946838 2207.305908,710.326538 2207.305908,758.000061 
	C2210.582520,758.000061 2213.556396,758.000061 2217.515137,758.000061 
M1225.491455,467.999390 
	C1228.321411,467.999115 1231.158936,467.869690 1233.979370,468.033386 
	C1237.040405,468.211029 1238.044434,466.916534 1238.040527,463.924927 
	C1237.981812,418.644989 1237.981812,373.364929 1238.039917,328.084991 
	C1238.043823,325.104736 1237.061157,323.850464 1233.990845,323.957825 
	C1229.335327,324.120575 1224.641357,324.322144 1220.016602,323.911682 
	C1215.089111,323.474365 1213.892090,325.330933 1213.910034,330.080261 
	C1214.078003,374.360809 1214.007202,418.642273 1214.018433,462.923462 
	C1214.018799,464.527100 1214.150879,466.130707 1214.233276,467.999390 
	C1217.899780,467.999390 1221.203857,467.999390 1225.491455,467.999390 
M1220.680176,304.000000 
	C1226.426147,304.000000 1232.172241,304.000000 1237.747803,304.000000 
	C1237.747803,293.275238 1237.747803,283.335938 1237.747803,273.289246 
	C1229.436768,273.289246 1221.380493,273.289246 1213.400513,273.289246 
	C1213.225220,273.879150 1213.056885,274.183197 1213.055664,274.487915 
	C1213.026367,282.149628 1213.008057,289.811340 1213.002075,297.473083 
	C1212.997192,303.886353 1213.005249,303.886353 1220.680176,304.000000 
z"/>
<path fill="#41E495" opacity="1.000000" stroke="none" 
	d="
M930.000000,882.000000 
	C930.000000,893.802979 930.000000,905.105896 930.000000,916.702759 
	C785.615662,916.702759 641.568604,916.702759 497.260681,916.702759 
	C497.260681,898.654907 497.260681,880.716675 497.260681,862.273193 
	C622.201416,862.273193 747.250610,862.273193 872.649536,862.273193 
	C872.649536,623.061646 872.649536,384.354004 872.649536,145.323090 
	C639.006653,145.323090 405.298676,145.323090 171.083618,145.323090 
	C171.083618,242.057129 171.083618,338.775085 171.083618,435.745789 
	C150.641449,435.745789 130.703674,435.745789 110.382462,435.745789 
	C110.382462,320.451752 110.382462,205.069244 110.382462,89.343185 
	C383.283844,89.343185 656.322632,89.343185 930.000000,89.343185 
	C930.000000,353.361908 930.000000,617.430969 930.000000,882.000000 
z"/>
<path fill="#31C0DF" opacity="1.000000" stroke="none" 
	d="
M423.999756,390.000000 
	C424.005127,430.489929 424.009949,470.479828 424.027222,510.469757 
	C424.027344,510.756439 424.197906,511.043091 424.428528,511.769806 
	C425.711426,510.950012 427.038788,510.360291 428.038300,509.421509 
	C435.044464,502.840973 441.977905,496.183136 448.944153,489.560089 
	C462.274200,476.886749 475.585358,464.193451 488.952271,451.559113 
	C499.659668,441.438599 510.440002,431.395294 521.184326,421.313843 
	C542.792786,401.038422 564.394043,380.755371 586.007874,360.485535 
	C596.387268,350.751526 606.799866,341.052887 617.173157,331.312408 
	C620.840698,327.868561 624.634399,325.691803 630.172791,325.846863 
	C645.823242,326.285065 661.494019,325.992920 677.156738,326.011780 
	C678.709045,326.013641 680.261230,326.175110 682.529114,326.302795 
	C664.621277,343.417786 647.350891,359.984344 630.009094,376.475861 
	C618.612305,387.313843 607.099243,398.029419 595.661987,408.824860 
	C577.525574,425.943573 559.429626,443.105225 541.268066,460.197113 
	C537.193115,464.032043 532.917847,467.654114 528.450500,471.627045 
	C582.712830,543.724548 636.692078,615.445984 691.297974,688.000000 
	C685.409424,688.000000 680.364014,688.000000 675.318665,688.000000 
	C664.154785,688.000000 652.986694,688.157288 641.831055,687.853638 
	C639.842285,687.799500 637.294373,686.305176 636.038391,684.677979 
	C621.885498,666.342102 607.858765,647.907166 593.954834,629.381348 
	C583.787842,615.834595 573.955688,602.036499 563.790771,588.488098 
	C550.089417,570.226074 536.179199,552.120911 522.423035,533.899719 
	C514.863953,523.887146 507.447693,513.766785 499.934143,503.719574 
	C499.163910,502.689575 498.168030,501.828339 497.066498,500.667053 
	C495.575409,502.071594 494.268158,503.292328 492.972382,504.525116 
	C479.285126,517.546936 465.647095,530.620972 451.895630,543.574585 
	C443.961700,551.048218 435.918243,558.410156 427.771393,565.650574 
	C424.949554,568.158447 423.895630,570.852417 423.911407,574.670471 
	C424.059509,610.494202 423.999176,646.318787 423.999054,682.143127 
	C423.999054,683.939514 423.999023,685.735962 423.999023,687.755981 
	C409.643402,687.755981 395.703705,687.755981 381.381378,687.755981 
	C381.381378,567.484070 381.381378,447.112762 381.381378,326.370728 
	C395.218506,326.370728 409.276917,326.370728 423.999786,326.370728 
	C423.999786,347.326721 423.999786,368.413361 423.999756,390.000000 
z"/>
<path fill="#31C0DF" opacity="1.000000" stroke="none" 
	d="
M1401.942261,758.000122 
	C1396.817749,758.000122 1392.182861,758.000122 1387.277588,758.000122 
	C1387.277588,710.259644 1387.277588,662.869873 1387.277588,615.239807 
	C1394.695923,615.239807 1401.971313,615.239807 1409.808838,615.239807 
	C1409.808838,621.146545 1409.808838,627.173096 1409.808838,634.456543 
	C1421.406128,617.086731 1437.568115,612.006470 1455.917969,613.145935 
	C1474.079956,614.273621 1487.010742,624.379211 1495.248901,637.392090 
	C1500.481323,633.043335 1505.997070,627.718567 1512.229736,623.437622 
	C1524.116943,615.273010 1537.070068,611.640381 1551.897949,613.704102 
	C1564.245483,615.422607 1574.469238,620.475769 1582.599365,629.313049 
	C1592.226318,639.777283 1597.912964,652.342773 1597.965088,666.859375 
	C1598.072021,696.689453 1597.981567,726.520203 1597.964111,756.350708 
	C1597.963867,756.669800 1597.850342,756.988770 1597.723999,757.653442 
	C1590.401245,757.653442 1583.006958,757.653442 1575.000000,757.653442 
	C1575.000000,755.943970 1575.000000,754.176941 1575.000000,752.409851 
	C1575.000000,725.078918 1575.246582,697.744568 1574.871582,670.418762 
	C1574.732788,660.314331 1571.609985,650.700439 1563.929077,643.558777 
	C1555.758179,635.961365 1546.087280,632.799133 1534.743042,634.935669 
	C1521.792236,637.374634 1512.603149,644.605652 1507.471680,656.398315 
	C1505.262085,661.475891 1504.217529,667.430359 1504.146606,673.005432 
	C1503.811890,699.332214 1503.997314,725.665649 1503.997437,751.996704 
	C1503.997437,753.804321 1503.997437,755.611938 1503.997437,757.704590 
	C1496.292725,757.704590 1488.900269,757.704590 1481.000000,757.704590 
	C1481.000000,755.826416 1481.000000,754.045410 1481.000000,752.264404 
	C1481.000000,725.433411 1481.281250,698.598022 1480.863159,671.773560 
	C1480.693115,660.867188 1477.858276,650.283386 1469.114136,642.752075 
	C1461.292969,636.015686 1452.169556,633.042847 1441.579956,634.902649 
	C1431.225708,636.721069 1422.795898,641.142578 1416.555176,649.836304 
	C1411.526978,656.841187 1410.188232,664.841858 1410.101807,672.955139 
	C1409.821411,699.283203 1409.997314,725.616089 1409.997437,751.947144 
	C1409.997437,753.756836 1409.997437,755.566589 1409.997437,758.000122 
	C1407.296021,758.000122 1404.863892,758.000122 1401.942261,758.000122 
z"/>
<path fill="#31C0DF" opacity="1.000000" stroke="none" 
	d="
M1160.956665,281.535522 
	C1162.127563,280.491760 1163.039185,279.117828 1163.971313,279.103821 
	C1174.220459,278.949463 1184.472900,279.006927 1194.724365,279.006927 
	C1194.958008,279.431793 1195.191650,279.856689 1195.425293,280.281555 
	C1168.994751,305.272736 1142.564087,330.263885 1116.075684,355.309784 
	C1144.040039,392.525360 1171.888306,429.586517 1199.736694,466.647675 
	C1199.430786,467.093140 1199.124756,467.538635 1198.818848,467.984131 
	C1190.083618,467.984131 1181.345093,468.099518 1172.616821,467.852600 
	C1171.388794,467.817841 1169.964722,466.199188 1169.046997,464.996521 
	C1156.983276,449.187866 1144.950439,433.355316 1133.002808,417.458771 
	C1125.423828,407.374725 1118.032715,397.149506 1110.492676,387.035919 
	C1106.566406,381.769623 1102.499878,376.607971 1098.713379,371.681030 
	C1093.848755,376.123871 1088.983398,380.526093 1084.164185,384.978302 
	C1076.713257,391.861786 1069.222900,398.706238 1061.949219,405.773071 
	C1061.016968,406.678864 1061.009521,408.820831 1061.033691,410.382996 
	C1061.303711,427.810425 1061.666504,445.236450 1061.995972,462.663055 
	C1062.026733,464.291595 1062.000000,465.921265 1062.000000,467.763000 
	C1053.963745,467.763000 1046.355347,467.763000 1038.372314,467.763000 
	C1038.372314,405.118225 1038.372314,342.398224 1038.372314,279.029968 
	C1045.305176,279.029968 1052.408936,278.844360 1059.478149,279.254272 
	C1060.409180,279.308228 1061.879761,282.399963 1061.891724,284.093292 
	C1062.053101,306.922302 1062.000000,329.752838 1062.000000,352.582977 
	C1062.000000,359.412994 1062.000000,366.243042 1062.000000,373.807800 
	C1072.216919,364.288574 1081.967773,355.124329 1091.808105,346.057190 
	C1101.812378,336.839081 1111.993652,327.811646 1121.936768,318.528717 
	C1134.942505,306.386414 1147.790894,294.075378 1160.956665,281.535522 
z"/>
<path fill="#31C0DF" opacity="1.000000" stroke="none" 
	d="
M1631.944214,615.895081 
	C1639.433105,615.465210 1646.921997,615.035400 1654.968994,614.573608 
	C1654.968994,621.355591 1654.968994,627.390564 1654.968994,633.965027 
	C1659.238525,630.268982 1662.784302,626.888000 1666.647583,623.920288 
	C1674.539673,617.857727 1683.473633,614.280334 1693.504639,614.037476 
	C1701.188354,613.851501 1708.947266,613.359680 1716.552612,614.154724 
	C1727.892578,615.339966 1738.017700,620.220825 1746.817871,627.404053 
	C1760.424316,638.510315 1768.490112,653.042114 1771.924194,670.170715 
	C1775.702759,689.016602 1773.490967,707.283813 1764.768677,724.319824 
	C1757.745361,738.037720 1747.030029,748.807556 1732.710327,754.812622 
	C1725.684082,757.759094 1717.735229,759.108459 1710.080811,759.783264 
	C1702.568237,760.445557 1694.808960,759.953735 1687.321655,758.854370 
	C1677.072510,757.349548 1668.210205,752.551819 1661.191650,744.700745 
	C1659.526489,742.838074 1657.788086,741.040894 1655.273193,738.345276 
	C1655.273193,764.097046 1655.273193,788.739197 1655.273193,813.976685 
	C1647.466797,813.976685 1640.202393,813.976685 1632.472412,813.446655 
	C1631.986084,747.242798 1631.965088,681.568970 1631.944214,615.895081 
M1652.998779,685.582458 
	C1654.000732,691.847717 1654.472168,698.255920 1656.113770,704.348816 
	C1659.646973,717.461731 1666.959106,727.821228 1679.458252,734.146484 
	C1689.223755,739.088440 1699.279785,739.657471 1709.946045,738.123901 
	C1722.768677,736.280090 1732.702026,730.019775 1739.946899,719.717957 
	C1748.557251,707.474609 1750.862305,693.774048 1749.196167,678.820801 
	C1747.494507,663.547363 1741.135254,651.208862 1728.806396,642.569336 
	C1717.580200,634.702637 1704.689697,632.818481 1691.076538,635.350525 
	C1681.352905,637.159058 1673.246582,641.735535 1666.767456,648.878113 
	C1657.641235,658.938843 1654.412964,671.507141 1652.998779,685.582458 
z"/>
<path fill="#31C0DF" opacity="1.000000" stroke="none" 
	d="
M2094.000000,695.999512 
	C2084.174805,695.999512 2074.849609,695.999512 2065.599609,695.999512 
	C2066.802490,707.597351 2071.162354,717.749817 2079.340820,725.663086 
	C2091.144287,737.083557 2105.461426,740.479126 2121.770996,738.300476 
	C2130.228271,737.170654 2137.587402,734.603516 2143.654785,728.947327 
	C2147.140869,725.697815 2149.659180,721.425476 2152.751953,717.729614 
	C2153.680420,716.619751 2155.052734,715.162292 2156.262207,715.123352 
	C2163.733887,714.883057 2171.217285,715.002625 2179.258301,715.002625 
	C2178.002197,722.039246 2174.334717,727.356628 2170.772461,732.718506 
	C2164.092529,742.772461 2155.022949,750.190796 2144.168213,755.078308 
	C2138.657715,757.559570 2132.492188,758.881409 2126.482178,759.893921 
	C2114.710938,761.877319 2102.795410,761.125488 2091.466309,757.792236 
	C2077.902344,753.801636 2066.051514,746.653564 2057.299072,734.928467 
	C2050.904541,726.362183 2046.168457,717.266602 2043.828369,706.742004 
	C2041.240967,695.104919 2040.443481,683.736572 2042.686279,671.817017 
	C2044.310181,663.186523 2046.737671,655.134460 2050.877930,647.532349 
	C2056.879883,636.511414 2065.370605,628.047058 2076.391357,621.826965 
	C2088.463867,615.013367 2101.456543,612.938782 2114.951660,613.041260 
	C2137.397949,613.211670 2155.583008,622.717529 2169.296631,640.058960 
	C2176.229004,648.825378 2180.533203,659.368164 2181.892578,670.638306 
	C2182.876953,678.801086 2182.957520,687.072815 2183.482422,695.999512 
	C2153.343506,695.999512 2123.921631,695.999512 2094.000000,695.999512 
M2149.421387,673.999878 
	C2152.413086,673.999878 2155.405029,673.999878 2158.423584,673.999878 
	C2154.930420,649.078308 2134.950195,633.705505 2111.916748,634.284302 
	C2088.316162,634.877258 2070.423828,647.971008 2066.525635,673.749390 
	C2066.846680,673.822510 2067.167969,673.959473 2067.489014,673.959717 
	C2094.474121,673.979919 2121.459473,673.989502 2149.421387,673.999878 
z"/>
<path fill="#31C0DF" opacity="1.000000" stroke="none" 
	d="
M1195.007568,718.956543 
	C1186.885620,731.992004 1176.578613,742.178772 1163.257202,749.411072 
	C1150.843628,756.150452 1137.726074,758.989197 1123.691650,760.256958 
	C1104.225098,762.015442 1086.177612,757.886841 1069.766479,748.486511 
	C1060.857788,743.383545 1053.358887,735.264404 1046.398560,727.458496 
	C1038.126831,718.181885 1032.870483,706.869812 1029.995483,694.694641 
	C1028.618774,688.864258 1027.876221,682.874695 1027.036255,676.930420 
	C1026.508667,673.197144 1026.038574,669.413269 1026.049561,665.653503 
	C1026.105347,646.470459 1029.021240,627.895386 1039.019409,611.098328 
	C1046.727417,598.148621 1056.697998,587.397278 1069.795044,579.559143 
	C1081.629883,572.476379 1094.412354,569.372498 1107.993896,567.876404 
	C1132.163696,565.214111 1153.978271,570.986816 1173.466919,585.115295 
	C1185.566528,593.887024 1194.661987,605.360901 1200.187500,619.449951 
	C1201.011597,621.551392 1202.193237,623.512573 1203.587769,626.292786 
	C1201.717896,626.932678 1200.177490,627.497498 1198.609863,627.972900 
	C1198.151855,628.111816 1197.616699,627.997986 1197.116821,627.996887 
	C1191.452637,627.984497 1184.978516,629.661438 1180.367065,627.451599 
	C1176.295898,625.500732 1174.383179,619.157898 1171.376709,614.852539 
	C1161.256592,600.360229 1147.230103,592.849060 1129.735840,590.906738 
	C1116.994263,589.492126 1104.667236,590.561462 1092.619019,594.783569 
	C1077.936646,599.928711 1067.057373,609.628845 1059.447021,623.079773 
	C1052.047485,636.158508 1049.001343,650.519714 1049.171143,665.260620 
	C1049.392334,684.473877 1054.928589,702.481079 1067.846191,717.005432 
	C1077.263916,727.594666 1089.803955,733.864563 1104.056641,735.970215 
	C1109.874756,736.829712 1115.740234,737.847534 1121.592896,737.903992 
	C1139.310059,738.075012 1154.729492,731.808411 1167.055908,719.159485 
	C1171.262085,714.843262 1173.986450,708.992432 1176.965454,703.608948 
	C1178.439331,700.945557 1179.974609,699.781738 1183.072876,699.927612 
	C1188.558716,700.186218 1194.065674,700.003601 1199.563721,700.001587 
	C1202.411987,700.000549 1203.617188,700.874695 1202.085938,703.892944 
	C1199.631226,708.731323 1197.396973,713.681519 1195.007568,718.956543 
z"/>
<path fill="#31C0DF" opacity="1.000000" stroke="none" 
	d="
M1354.311890,325.696899 
	C1359.717041,328.394470 1365.206543,330.270660 1369.722534,333.505798 
	C1374.013916,336.580048 1377.287354,341.075287 1382.010498,345.987885 
	C1382.010498,338.965485 1382.066284,333.539215 1381.985596,328.114990 
	C1381.948242,325.606262 1382.427612,323.919434 1385.489990,323.971222 
	C1391.791138,324.077698 1398.095215,324.003204 1404.697021,324.003204 
	C1404.697021,371.998444 1404.697021,419.697784 1404.697021,467.698975 
	C1397.312622,467.698975 1389.923340,467.698975 1382.178345,467.698975 
	C1382.178345,461.383209 1382.178345,455.121826 1382.178345,447.916321 
	C1373.170776,458.073334 1363.160278,465.167694 1350.663818,468.038177 
	C1341.340454,470.179779 1331.963135,470.413910 1322.353027,469.339661 
	C1314.078613,468.414734 1306.673950,465.887939 1299.364258,462.175781 
	C1288.013550,456.411499 1279.772705,447.581421 1273.439697,436.847443 
	C1264.893921,422.363312 1262.043945,406.438141 1263.075073,389.886871 
	C1264.482178,367.298615 1274.249878,348.609497 1292.025269,334.773071 
	C1301.329590,327.530426 1312.621216,323.557770 1324.574951,323.129852 
	C1333.153687,322.822784 1341.776611,323.628082 1350.372681,324.075287 
	C1351.592896,324.138763 1352.772583,324.985260 1354.311890,325.696899 
M1293.446899,424.951263 
	C1296.022583,428.505798 1298.031982,432.722107 1301.274780,435.497040 
	C1313.452393,445.917725 1327.277588,451.066650 1343.719238,448.094299 
	C1358.547485,445.413605 1369.341675,437.790405 1376.177734,424.432098 
	C1382.660400,411.764374 1384.623901,398.385345 1381.918457,384.467560 
	C1379.939087,374.284637 1376.107300,364.754974 1368.670044,357.250732 
	C1357.043335,345.519379 1342.859619,342.480591 1326.774048,344.816040 
	C1307.229980,347.653687 1295.028809,359.586395 1289.423828,377.069336 
	C1284.425171,392.660950 1284.848633,409.101410 1293.446899,424.951263 
z"/>
<path fill="#31C0DF" opacity="1.000000" stroke="none" 
	d="
M1687.934937,325.279846 
	C1687.984863,373.023315 1687.984863,420.288483 1687.984863,467.776184 
	C1680.272705,467.776184 1672.999268,467.776184 1665.220459,467.776184 
	C1665.220459,461.460754 1665.220459,455.072723 1665.220459,448.275848 
	C1660.205566,452.599396 1655.881714,456.751617 1651.128052,460.333038 
	C1642.531006,466.810028 1632.391602,469.328400 1621.896362,469.902069 
	C1610.567139,470.521301 1599.362305,469.732819 1588.577393,465.308197 
	C1577.956543,460.950867 1569.243896,454.091278 1562.256470,445.335541 
	C1555.876221,437.340698 1551.111206,428.272095 1548.915894,418.020569 
	C1546.326294,405.927979 1545.276245,394.019470 1547.462036,381.565277 
	C1549.370605,370.690002 1553.043701,360.803162 1559.141724,351.940369 
	C1565.576660,342.587921 1573.542603,334.869171 1584.206177,329.763672 
	C1595.401001,324.403900 1607.079346,321.650604 1619.102783,322.217529 
	C1637.367920,323.078796 1652.297485,328.933197 1665.000000,345.419128 
	C1665.000000,339.303284 1665.175415,334.099701 1664.939941,328.914795 
	C1664.776611,325.319122 1665.821167,323.664856 1669.689209,323.951782 
	C1675.742188,324.400818 1681.818604,324.534393 1687.934937,325.279846 
M1634.450562,446.110413 
	C1647.622192,441.712006 1656.495850,432.891754 1661.525879,420.010834 
	C1666.106445,408.281006 1667.431396,396.194611 1664.927490,383.903015 
	C1661.728882,368.202179 1653.923462,355.400055 1639.131226,348.135773 
	C1631.077881,344.180908 1622.142334,343.239441 1613.229858,344.059265 
	C1601.478149,345.140259 1590.995361,349.829376 1583.169312,358.559143 
	C1570.061646,373.180511 1567.480713,390.899261 1571.102417,409.560425 
	C1575.941895,434.497162 1596.601440,449.980408 1621.385742,448.915466 
	C1625.560791,448.736023 1629.687622,447.440155 1634.450562,446.110413 
z"/>
<path fill="#31C0DF" opacity="1.000000" stroke="none" 
	d="
M1347.795410,641.300659 
	C1353.857056,649.762756 1358.104736,658.936279 1359.530640,668.653076 
	C1360.946899,678.303040 1360.055176,688.303833 1360.027954,698.150330 
	C1359.994141,710.324951 1355.166748,720.956238 1348.575806,730.771118 
	C1339.161987,744.789673 1326.593506,754.644470 1309.650391,757.971802 
	C1303.427246,759.194031 1297.096313,760.957336 1290.859619,760.790344 
	C1278.348022,760.455261 1265.982300,758.656006 1254.738892,752.274719 
	C1235.462769,741.334595 1224.097656,724.524841 1220.386108,703.176147 
	C1218.009033,689.503052 1217.895386,675.273621 1222.751709,661.851562 
	C1225.479858,654.311462 1228.411011,646.375610 1233.239746,640.164612 
	C1242.612671,628.108948 1254.458618,618.808960 1270.024658,615.443176 
	C1288.394409,611.471191 1306.403931,611.939575 1323.544800,620.298584 
	C1333.275024,625.043640 1340.966309,632.471497 1347.795410,641.300659 
M1297.038452,738.951538 
	C1297.627441,738.659851 1298.197754,738.162537 1298.808350,738.106812 
	C1311.117188,736.983704 1320.193115,730.171875 1327.425415,720.926636 
	C1334.432617,711.969116 1337.133911,701.141296 1337.918823,689.982178 
	C1338.603027,680.255249 1336.850342,670.623901 1332.785156,661.863464 
	C1328.510376,652.651062 1322.334961,644.701355 1312.804565,639.890747 
	C1302.896973,634.889832 1292.625977,633.059814 1281.684082,634.999390 
	C1271.596191,636.787659 1262.791138,641.103271 1255.878296,648.707947 
	C1246.264160,659.284058 1242.570190,672.392395 1242.259155,686.164490 
	C1242.098022,693.296021 1244.081177,700.659363 1246.126099,707.615051 
	C1249.316650,718.467468 1255.848145,727.084961 1265.762939,732.991699 
	C1275.207520,738.618225 1285.542969,739.317688 1297.038452,738.951538 
z"/>
<path fill="#31C0DF" opacity="1.000000" stroke="none" 
	d="
M2408.765625,644.457031 
	C2409.562500,647.999084 2410.180664,651.169617 2410.862793,654.670166 
	C2403.089355,654.670166 2395.367432,654.670166 2387.906006,654.670166 
	C2385.990967,650.664673 2384.624756,646.279968 2382.057373,642.774902 
	C2377.605957,636.697388 2370.343994,634.795959 2363.505127,634.233215 
	C2353.710693,633.427246 2343.794678,632.957397 2333.996826,635.897522 
	C2320.598145,639.918274 2318.720215,653.828369 2324.552979,661.215271 
	C2328.013672,665.597900 2334.768311,668.077698 2340.524658,669.800293 
	C2351.672363,673.136230 2363.216553,675.119202 2374.494141,678.055725 
	C2388.508301,681.704773 2402.177490,686.361938 2410.673096,699.281494 
	C2415.794189,707.069336 2416.000244,716.090454 2414.505371,724.895142 
	C2411.074219,745.104614 2397.085449,754.318176 2378.394531,757.956116 
	C2371.206543,759.355286 2363.855469,760.947144 2356.608643,760.815430 
	C2337.384033,760.466003 2319.316162,756.247742 2305.666504,741.141846 
	C2299.855957,734.711487 2296.313232,727.147644 2295.002930,718.560913 
	C2294.709473,716.639465 2294.417725,714.717773 2294.064453,712.397949 
	C2302.139648,712.397949 2310.173584,712.397949 2318.196777,712.397949 
	C2319.418213,716.118469 2320.547119,720.105286 2322.029297,723.956238 
	C2325.135498,732.027771 2332.318604,735.575195 2339.690430,737.834229 
	C2353.045410,741.926697 2366.465576,741.003540 2379.597900,736.020752 
	C2386.492676,733.404785 2391.837891,727.107361 2391.946289,720.310913 
	C2392.064453,712.912354 2388.263916,708.273682 2381.654053,704.788391 
	C2370.219727,698.759644 2357.771240,696.645874 2345.431641,694.059509 
	C2333.944580,691.651917 2322.427246,688.853516 2312.872070,682.058472 
	C2298.985107,672.182861 2295.005371,661.809448 2299.416016,643.490662 
	C2303.156494,627.955505 2314.224609,618.972839 2329.696533,616.107056 
	C2338.988525,614.385803 2348.538818,613.077026 2357.950439,613.206909 
	C2373.381592,613.419800 2388.265137,616.764160 2399.167725,628.916199 
	C2403.081299,633.278320 2405.490723,638.989807 2408.765625,644.457031 
z"/>
<path fill="#31C0DF" opacity="1.000000" stroke="none" 
	d="
M1820.833252,701.996460 
	C1821.839111,719.959656 1831.894409,733.518311 1847.264160,737.507568 
	C1869.739868,743.341309 1891.232910,733.978455 1898.434204,710.528625 
	C1901.762573,699.690063 1902.427246,687.866272 1900.170044,676.311523 
	C1899.981323,675.345825 1900.006958,674.329651 1900.006470,673.336975 
	C1899.997559,655.504883 1900.082886,637.672058 1899.931885,619.841248 
	C1899.900757,616.169861 1900.984619,614.729309 1904.763916,614.936157 
	C1909.582397,615.199829 1914.437622,615.202209 1919.255859,614.935669 
	C1923.059448,614.725342 1924.084351,616.215027 1924.066162,619.861267 
	C1923.940552,645.025574 1924.000000,670.190796 1924.000000,695.355713 
	C1924.000000,716.006409 1924.000000,736.657104 1924.000000,757.653564 
	C1916.069458,757.653564 1908.341675,757.653564 1900.084473,757.653564 
	C1900.084473,752.022705 1900.084473,746.314270 1900.084473,741.023010 
	C1892.566284,746.297180 1885.624634,752.210632 1877.760010,756.385193 
	C1870.168335,760.414856 1861.641846,761.356873 1852.701538,760.265259 
	C1844.877930,759.309875 1837.239868,758.680176 1830.010620,755.115234 
	C1823.245361,751.779175 1817.784058,747.240295 1812.672363,741.641418 
	C1806.633301,735.026733 1802.443726,727.638489 1800.193848,719.255310 
	C1798.476685,712.856628 1797.218262,706.129700 1797.139526,699.532349 
	C1796.811768,672.038269 1797.006348,644.537842 1797.019775,617.039795 
	C1797.020020,616.561951 1797.153198,616.084106 1797.289307,615.169006 
	C1804.707397,615.169006 1812.136353,615.169006 1819.795898,616.004211 
	C1820.017334,643.445129 1819.992310,670.050781 1820.035400,696.656433 
	C1820.038208,698.436829 1820.555298,700.216431 1820.833252,701.996460 
z"/>
<path fill="#31C0DF" opacity="1.000000" stroke="none" 
	d="
M1969.836304,636.000305 
	C1961.061768,636.000183 1952.770020,636.000183 1944.242676,636.000183 
	C1944.242676,628.976807 1944.242676,622.367188 1944.242676,615.261597 
	C1953.866089,615.261597 1963.599731,615.261597 1974.006714,615.261597 
	C1974.006714,610.189880 1974.006714,605.597656 1974.006714,601.005493 
	C1974.006836,590.172791 1974.120605,579.338196 1973.941895,568.508484 
	C1973.883423,564.960327 1975.149536,563.770081 1978.600708,563.946838 
	C1982.922485,564.168152 1987.266479,564.088257 1991.596558,563.973572 
	C1995.400391,563.872803 1997.155273,565.096008 1997.089478,569.363037 
	C1996.858643,584.343323 1997.000000,599.329468 1997.000000,614.807983 
	C2007.600830,614.807983 2018.002686,614.807983 2028.697510,614.807983 
	C2028.697510,622.024048 2028.697510,628.750671 2028.697510,635.800354 
	C2018.342773,635.800354 2008.065918,635.800354 1997.296387,635.800354 
	C1997.296387,676.506958 1997.296387,716.899719 1997.296387,757.645508 
	C1989.421265,757.645508 1982.026978,757.645508 1974.006714,757.645508 
	C1974.006714,755.957458 1974.006714,754.192139 1974.006714,752.426819 
	C1974.006714,715.095642 1973.994995,677.764526 1974.031128,640.433350 
	C1974.033691,637.775024 1974.264526,635.218567 1969.836304,636.000305 
z"/>
<path fill="#31C0DE" opacity="1.000000" stroke="none" 
	d="
M1520.988770,366.000000 
	C1520.988770,398.467194 1520.914185,430.434753 1521.076904,462.401123 
	C1521.098877,466.716125 1519.992798,468.364868 1515.491577,468.089874 
	C1509.546265,467.726593 1503.562012,468.000488 1497.299072,468.000488 
	C1497.299072,401.682465 1497.299072,335.670959 1497.299072,269.330627 
	C1504.961426,269.330627 1512.684692,269.330627 1520.988770,269.330627 
	C1520.988770,301.363922 1520.988770,333.431976 1520.988770,366.000000 
z"/>
<path fill="#31C0DE" opacity="1.000000" stroke="none" 
	d="
M1462.985352,401.000000 
	C1462.985229,421.999420 1462.887817,442.499725 1463.068481,462.997559 
	C1463.103882,467.027313 1461.806885,468.256561 1457.884155,468.075409 
	C1451.768066,467.792969 1445.629395,468.000641 1439.253906,468.000641 
	C1439.253906,401.663574 1439.253906,335.723114 1439.253906,269.392273 
	C1446.833374,269.392273 1454.560913,269.392273 1462.985352,269.392273 
	C1462.985352,312.992432 1462.985352,356.746216 1462.985352,401.000000 
z"/>
<path fill="#31C0DF" opacity="1.000000" stroke="none" 
	d="
M2217.022705,758.000061 
	C2213.556396,758.000061 2210.582520,758.000061 2207.305908,758.000061 
	C2207.305908,710.326538 2207.305908,662.946838 2207.305908,615.283203 
	C2214.727051,615.283203 2222.117676,615.283203 2229.871582,615.283203 
	C2229.871582,624.655579 2229.871582,633.901978 2229.871582,644.323364 
	C2242.206055,623.775635 2258.774902,612.402710 2282.667725,613.046326 
	C2282.667725,620.589050 2282.667725,627.991089 2282.667725,634.769775 
	C2275.516113,636.600342 2268.173584,637.605530 2261.552002,640.350464 
	C2246.063721,646.770996 2237.754150,659.746887 2233.177734,675.157471 
	C2231.296875,681.491943 2230.257812,688.286133 2230.137695,694.894897 
	C2229.759277,715.696960 2229.998291,736.510315 2229.998291,758.000061 
	C2225.697266,758.000061 2221.606201,758.000061 2217.022705,758.000061 
z"/>
<path fill="#31C0DE" opacity="1.000000" stroke="none" 
	d="
M1224.999756,467.999390 
	C1221.203857,467.999390 1217.899780,467.999390 1214.233276,467.999390 
	C1214.150879,466.130707 1214.018799,464.527100 1214.018433,462.923462 
	C1214.007202,418.642273 1214.078003,374.360809 1213.910034,330.080261 
	C1213.892090,325.330933 1215.089111,323.474365 1220.016602,323.911682 
	C1224.641357,324.322144 1229.335327,324.120575 1233.990845,323.957825 
	C1237.061157,323.850464 1238.043823,325.104736 1238.039917,328.084991 
	C1237.981812,373.364929 1237.981812,418.644989 1238.040527,463.924927 
	C1238.044434,466.916534 1237.040405,468.211029 1233.979370,468.033386 
	C1231.158936,467.869690 1228.321411,467.999115 1224.999756,467.999390 
z"/>
<path fill="#31C0DF" opacity="1.000000" stroke="none" 
	d="
M1220.205811,304.000000 
	C1213.005249,303.886353 1212.997192,303.886353 1213.002075,297.473083 
	C1213.008057,289.811340 1213.026367,282.149628 1213.055664,274.487915 
	C1213.056885,274.183197 1213.225220,273.879150 1213.400513,273.289246 
	C1221.380493,273.289246 1229.436768,273.289246 1237.747803,273.289246 
	C1237.747803,283.335938 1237.747803,293.275238 1237.747803,304.000000 
	C1232.172241,304.000000 1226.426147,304.000000 1220.205811,304.000000 
z"/>
<path fill="#35C9C8" opacity="1.000000" stroke="none" 
	d="
M1631.579346,616.137817 
	C1631.965088,681.568970 1631.986084,747.242798 1632.009521,813.374756 
	C1631.674805,812.700195 1631.043335,811.567810 1631.042603,810.435059 
	C1630.996216,746.408813 1631.001953,682.382568 1631.012329,618.356323 
	C1631.012451,617.697754 1631.144165,617.039124 1631.579346,616.137817 
z"/>
<path fill="#33C7CA" opacity="1.000000" stroke="none" 
	d="
M1820.905029,701.532715 
	C1820.555298,700.216431 1820.038208,698.436829 1820.035400,696.656433 
	C1819.992310,670.050781 1820.017334,643.445129 1820.039062,616.364075 
	C1820.368530,617.409729 1820.958618,618.930298 1820.961426,620.451843 
	C1821.009033,647.324158 1820.985107,674.196594 1820.905029,701.532715 
z"/>
<path fill="transparent" opacity="1.000000" stroke="none" 
	d="
M1652.998657,685.121338 
	C1654.412964,671.507141 1657.641235,658.938843 1666.767456,648.878113 
	C1673.246582,641.735535 1681.352905,637.159058 1691.076538,635.350525 
	C1704.689697,632.818481 1717.580200,634.702637 1728.806396,642.569336 
	C1741.135254,651.208862 1747.494507,663.547363 1749.196167,678.820801 
	C1750.862305,693.774048 1748.557251,707.474609 1739.946899,719.717957 
	C1732.702026,730.019775 1722.768677,736.280090 1709.946045,738.123901 
	C1699.279785,739.657471 1689.223755,739.088440 1679.458252,734.146484 
	C1666.959106,727.821228 1659.646973,717.461731 1656.113770,704.348816 
	C1654.472168,698.255920 1654.000732,691.847717 1652.998657,685.121338 
z"/>
<path fill="transparent" opacity="1.000000" stroke="none" 
	d="
M2148.933105,673.999878 
	C2121.459473,673.989502 2094.474121,673.979919 2067.489014,673.959717 
	C2067.167969,673.959473 2066.846680,673.822510 2066.526367,673.745605 
	C2070.423828,647.971008 2088.316162,634.877258 2111.916748,634.284302 
	C2134.950195,633.705505 2154.930420,649.078308 2158.423584,673.999878 
	C2155.405029,673.999878 2152.413086,673.999878 2148.933105,673.999878 
z"/>
<path fill="transparent" opacity="1.000000" stroke="none" 
	d="
M1293.249023,424.629059 
	C1284.848633,409.101410 1284.425171,392.660950 1289.423828,377.069336 
	C1295.028809,359.586395 1307.229980,347.653687 1326.774048,344.816040 
	C1342.859619,342.480591 1357.043335,345.519379 1368.670044,357.250732 
	C1376.107300,364.754974 1379.939087,374.284637 1381.918457,384.467560 
	C1384.623901,398.385345 1382.660400,411.764374 1376.177734,424.432098 
	C1369.341675,437.790405 1358.547485,445.413605 1343.719238,448.094299 
	C1327.277588,451.066650 1313.452393,445.917725 1301.274780,435.497040 
	C1298.031982,432.722107 1296.022583,428.505798 1293.249023,424.629059 
z"/>
<path fill="transparent" opacity="1.000000" stroke="none" 
	d="
M1634.143677,446.385254 
	C1629.687622,447.440155 1625.560791,448.736023 1621.385742,448.915466 
	C1596.601440,449.980408 1575.941895,434.497162 1571.102417,409.560425 
	C1567.480713,390.899261 1570.061646,373.180511 1583.169312,358.559143 
	C1590.995361,349.829376 1601.478149,345.140259 1613.229858,344.059265 
	C1622.142334,343.239441 1631.077881,344.180908 1639.131226,348.135773 
	C1653.923462,355.400055 1661.728882,368.202179 1664.927490,383.903015 
	C1667.431396,396.194611 1666.106445,408.281006 1661.525879,420.010834 
	C1656.495850,432.891754 1647.622192,441.712006 1634.143677,446.385254 
z"/>
<path fill="transparent" opacity="1.000000" stroke="none" 
	d="
M1296.579102,738.976135 
	C1285.542969,739.317688 1275.207520,738.618225 1265.762939,732.991699 
	C1255.848145,727.084961 1249.316650,718.467468 1246.126099,707.615051 
	C1244.081177,700.659363 1242.098022,693.296021 1242.259155,686.164490 
	C1242.570190,672.392395 1246.264160,659.284058 1255.878296,648.707947 
	C1262.791138,641.103271 1271.596191,636.787659 1281.684082,634.999390 
	C1292.625977,633.059814 1302.896973,634.889832 1312.804565,639.890747 
	C1322.334961,644.701355 1328.510376,652.651062 1332.785156,661.863464 
	C1336.850342,670.623901 1338.603027,680.255249 1337.918823,689.982178 
	C1337.133911,701.141296 1334.432617,711.969116 1327.425415,720.926636 
	C1320.193115,730.171875 1311.117188,736.983704 1298.808350,738.106812 
	C1298.197754,738.162537 1297.627441,738.659851 1296.579102,738.976135 
z"/>
</svg>