<?xml version="1.0" encoding="iso-8859-1"?>
<!-- Uploaded to: SVG Repo, www.svgrepo.com, Generator: SVG Repo Mixer Tools -->
<svg version="1.1" id="Layer_1" xmlns="http://www.w3.org/2000/svg" xmlns:xlink="http://www.w3.org/1999/xlink" 
	 viewBox="0 0 512 512" xml:space="preserve">
<path style="fill:#79CAE8;" d="M350.839,413.36H161.167C106.398,413.36,62,368.96,62,314.193V164.732h388.007v149.46
	C450.007,368.96,405.607,413.36,350.839,413.36z"/>
<rect x="135.441" y="164.73" style="fill:#CAF9F4;" width="241.123" height="248.626"/>
<g>
	<path style="fill:#FFFFFF;" d="M201.667,232.621h-16.719c-6.925,0-12.539-5.614-12.539-12.539l0,0
		c0-6.926,5.614-12.539,12.539-12.539h16.719c6.925,0,12.539,5.613,12.539,12.539l0,0
		C214.206,227.006,208.592,232.621,201.667,232.621z"/>
	<path style="fill:#FFFFFF;" d="M264.362,232.621h-16.719c-6.925,0-12.539-5.614-12.539-12.539l0,0
		c0-6.926,5.614-12.539,12.539-12.539h16.719c6.925,0,12.539,5.613,12.539,12.539l0,0
		C276.901,227.006,271.286,232.621,264.362,232.621z"/>
	<path style="fill:#FFFFFF;" d="M327.056,232.621h-16.719c-6.925,0-12.539-5.614-12.539-12.539l0,0
		c0-6.926,5.614-12.539,12.539-12.539h16.719c6.925,0,12.539,5.613,12.539,12.539l0,0
		C339.595,227.006,333.981,232.621,327.056,232.621z"/>
	<path style="fill:#FFFFFF;" d="M201.667,278.597h-16.719c-6.925,0-12.539-5.614-12.539-12.539l0,0
		c0-6.926,5.614-12.539,12.539-12.539h16.719c6.925,0,12.539,5.613,12.539,12.539l0,0
		C214.206,272.982,208.592,278.597,201.667,278.597z"/>
	<path style="fill:#FFFFFF;" d="M264.362,278.597h-16.719c-6.925,0-12.539-5.614-12.539-12.539l0,0
		c0-6.926,5.614-12.539,12.539-12.539h16.719c6.925,0,12.539,5.613,12.539,12.539l0,0
		C276.901,272.982,271.286,278.597,264.362,278.597z"/>
	<path style="fill:#FFFFFF;" d="M327.056,278.597h-16.719c-6.925,0-12.539-5.614-12.539-12.539l0,0
		c0-6.926,5.614-12.539,12.539-12.539h16.719c6.925,0,12.539,5.613,12.539,12.539l0,0
		C339.595,272.982,333.981,278.597,327.056,278.597z"/>
	<path style="fill:#FFFFFF;" d="M201.667,324.573h-16.719c-6.925,0-12.539-5.614-12.539-12.539l0,0
		c0-6.926,5.614-12.539,12.539-12.539h16.719c6.925,0,12.539,5.613,12.539,12.539l0,0
		C214.206,318.958,208.592,324.573,201.667,324.573z"/>
	<path style="fill:#FFFFFF;" d="M264.362,324.573h-16.719c-6.925,0-12.539-5.614-12.539-12.539l0,0
		c0-6.926,5.614-12.539,12.539-12.539h16.719c6.925,0,12.539,5.613,12.539,12.539l0,0
		C276.901,318.958,271.286,324.573,264.362,324.573z"/>
	<path style="fill:#FFFFFF;" d="M327.056,324.573h-16.719c-6.925,0-12.539-5.614-12.539-12.539l0,0
		c0-6.926,5.614-12.539,12.539-12.539h16.719c6.925,0,12.539,5.613,12.539,12.539l0,0
		C339.595,318.958,333.981,324.573,327.056,324.573z"/>
</g>
<path style="fill:#FF503D;" d="M201.667,370.549h-16.719c-6.925,0-12.539-5.614-12.539-12.539l0,0
	c0-6.926,5.614-12.539,12.539-12.539h16.719c6.925,0,12.539,5.613,12.539,12.539l0,0
	C214.206,364.934,208.592,370.549,201.667,370.549z"/>
<path style="fill:#FFD85C;" d="M264.362,370.549h-16.719c-6.925,0-12.539-5.614-12.539-12.539l0,0
	c0-6.926,5.614-12.539,12.539-12.539h16.719c6.925,0,12.539,5.613,12.539,12.539l0,0
	C276.901,364.934,271.286,370.549,264.362,370.549z"/>
<path style="fill:#8EC766;" d="M327.056,370.549h-16.719c-6.925,0-12.539-5.614-12.539-12.539l0,0
	c0-6.926,5.614-12.539,12.539-12.539h16.719c6.925,0,12.539,5.613,12.539,12.539l0,0
	C339.595,364.934,333.981,370.549,327.056,370.549z"/>
<path style="fill:#4B92B9;" d="M7.837,150.886v62.695h104.709l15.507-36.195c3.296-7.693,10.872-12.682,19.256-12.682h217.382
	c8.383,0,15.96,4.989,19.256,12.682l15.507,36.195h104.709v-62.695c0-28.854-23.439-52.245-52.355-52.245H60.191
	C31.277,98.64,7.837,122.032,7.837,150.886z"/>
<path d="M327.056,337.635h-16.719c-11.235,0-20.376,9.141-20.376,20.376c0,11.235,9.141,20.376,20.376,20.376h16.719
	c11.235,0,20.376-9.141,20.376-20.376C347.432,346.776,338.291,337.635,327.056,337.635z M327.056,362.713h-16.719
	c-2.592,0-4.702-2.11-4.702-4.702s2.11-4.702,4.702-4.702h16.719c2.592,0,4.702,2.11,4.702,4.702
	C331.758,360.603,329.649,362.713,327.056,362.713z"/>
<path d="M201.667,199.707h-16.719c-11.235,0-20.376,9.141-20.376,20.376c0,11.235,9.141,20.376,20.376,20.376h16.719
	c11.235,0,20.376-9.141,20.376-20.376C222.043,208.848,212.902,199.707,201.667,199.707z M201.667,224.785h-16.719
	c-2.592,0-4.702-2.11-4.702-4.702c0-2.593,2.11-4.702,4.702-4.702h16.719c2.592,0,4.702,2.109,4.702,4.702
	C206.369,222.675,204.26,224.785,201.667,224.785z"/>
<path d="M264.362,199.707h-16.719c-11.235,0-20.376,9.141-20.376,20.376c0,11.235,9.141,20.376,20.376,20.376h16.719
	c11.235,0,20.376-9.141,20.376-20.376C284.738,208.848,275.597,199.707,264.362,199.707z M264.362,224.785h-16.719
	c-2.592,0-4.702-2.11-4.702-4.702c0-2.593,2.11-4.702,4.702-4.702h16.719c2.592,0,4.702,2.109,4.702,4.702
	C269.064,222.675,266.954,224.785,264.362,224.785z"/>
<path d="M327.056,199.707h-16.719c-11.235,0-20.376,9.141-20.376,20.376c0,11.235,9.141,20.376,20.376,20.376h16.719
	c11.235,0,20.376-9.141,20.376-20.376C347.432,208.848,338.291,199.707,327.056,199.707z M327.056,224.785h-16.719
	c-2.592,0-4.702-2.11-4.702-4.702c0-2.593,2.11-4.702,4.702-4.702h16.719c2.592,0,4.702,2.109,4.702,4.702
	C331.758,222.675,329.649,224.785,327.056,224.785z"/>
<path d="M201.667,245.683h-16.719c-11.235,0-20.376,9.141-20.376,20.376s9.141,20.376,20.376,20.376h16.719
	c11.235,0,20.376-9.141,20.376-20.376S212.902,245.683,201.667,245.683z M201.667,270.761h-16.719c-2.592,0-4.702-2.11-4.702-4.702
	c0-2.593,2.11-4.702,4.702-4.702h16.719c2.592,0,4.702,2.109,4.702,4.702C206.369,268.651,204.26,270.761,201.667,270.761z"/>
<path d="M264.362,245.683h-16.719c-11.235,0-20.376,9.141-20.376,20.376s9.141,20.376,20.376,20.376h16.719
	c11.235,0,20.376-9.141,20.376-20.376S275.597,245.683,264.362,245.683z M264.362,270.761h-16.719c-2.592,0-4.702-2.11-4.702-4.702
	c0-2.593,2.11-4.702,4.702-4.702h16.719c2.592,0,4.702,2.109,4.702,4.702C269.064,268.651,266.954,270.761,264.362,270.761z"/>
<path d="M327.056,245.683h-16.719c-11.235,0-20.376,9.141-20.376,20.376s9.141,20.376,20.376,20.376h16.719
	c11.235,0,20.376-9.141,20.376-20.376S338.291,245.683,327.056,245.683z M327.056,270.761h-16.719c-2.592,0-4.702-2.11-4.702-4.702
	c0-2.593,2.11-4.702,4.702-4.702h16.719c2.592,0,4.702,2.109,4.702,4.702C331.758,268.651,329.649,270.761,327.056,270.761z"/>
<path d="M201.667,291.659h-16.719c-11.235,0-20.376,9.141-20.376,20.376c0,11.235,9.141,20.376,20.376,20.376h16.719
	c11.235,0,20.376-9.141,20.376-20.376S212.902,291.659,201.667,291.659z M201.667,316.737h-16.719c-2.592,0-4.702-2.11-4.702-4.702
	c0-2.592,2.11-4.702,4.702-4.702h16.719c2.592,0,4.702,2.11,4.702,4.702S204.26,316.737,201.667,316.737z"/>
<path d="M264.362,291.659h-16.719c-11.235,0-20.376,9.141-20.376,20.376c0,11.235,9.141,20.376,20.376,20.376h16.719
	c11.235,0,20.376-9.141,20.376-20.376S275.597,291.659,264.362,291.659z M264.362,316.737h-16.719c-2.592,0-4.702-2.11-4.702-4.702
	c0-2.592,2.11-4.702,4.702-4.702h16.719c2.592,0,4.702,2.11,4.702,4.702S266.954,316.737,264.362,316.737z"/>
<path d="M327.056,291.659h-16.719c-11.235,0-20.376,9.141-20.376,20.376c0,11.235,9.141,20.376,20.376,20.376h16.719
	c11.235,0,20.376-9.141,20.376-20.376S338.291,291.659,327.056,291.659z M327.056,316.737h-16.719c-2.592,0-4.702-2.11-4.702-4.702
	c0-2.592,2.11-4.702,4.702-4.702h16.719c2.592,0,4.702,2.11,4.702,4.702S329.649,316.737,327.056,316.737z"/>
<path d="M201.667,337.635h-16.719c-11.235,0-20.376,9.141-20.376,20.376c0,11.235,9.141,20.376,20.376,20.376h16.719
	c11.235,0,20.376-9.141,20.376-20.376C222.043,346.776,212.902,337.635,201.667,337.635z M201.667,362.713h-16.719
	c-2.592,0-4.702-2.11-4.702-4.702s2.11-4.702,4.702-4.702h16.719c2.592,0,4.702,2.11,4.702,4.702
	C206.369,360.603,204.26,362.713,201.667,362.713z"/>
<path d="M264.362,337.635h-16.719c-11.235,0-20.376,9.141-20.376,20.376c0,11.235,9.141,20.376,20.376,20.376h16.719
	c11.235,0,20.376-9.141,20.376-20.376C284.738,346.776,275.597,337.635,264.362,337.635z M264.362,362.713h-16.719
	c-2.592,0-4.702-2.11-4.702-4.702s2.11-4.702,4.702-4.702h16.719c2.592,0,4.702,2.11,4.702,4.702
	C269.064,360.603,266.954,362.713,264.362,362.713z"/>
<path d="M394.286,221.417H512v-70.531c0-33.13-27.001-60.082-60.191-60.082H60.191C27.001,90.804,0,117.756,0,150.886v70.531
	h117.714l9.89-23.084v200.801c-33.803-13.403-57.769-46.426-57.769-84.942v-71.595H54.162v71.595
	c0,59.003,48.001,107.004,107.004,107.004h189.673c59.002,0,107.004-48.001,107.004-107.004v-71.595h-15.674v71.595
	c0,38.515-23.966,71.539-57.769,84.942V198.347L394.286,221.417z M404.622,205.744l-3.802-8.874h95.507v8.874H404.622z
	 M15.674,205.744v-8.874h95.507l-3.802,8.874H15.674z M120.85,174.299l-2.955,6.896H15.674v-30.31
	c0-24.487,19.97-44.409,44.517-44.409h391.617c24.547,0,44.517,19.921,44.517,44.409v30.31H394.103l-2.955-6.896
	c-4.537-10.59-14.923-17.432-26.459-17.432H147.31C135.774,156.867,125.387,163.709,120.85,174.299z M350.84,405.523H161.166
	c-6.121,0-12.101-0.61-17.888-1.764V173.178c1.281-0.413,2.636-0.637,4.031-0.637h217.382c1.397,0,2.753,0.226,4.036,0.638V403.76
	C362.941,404.913,356.96,405.523,350.84,405.523z"/>
</svg>